<svg xmlns="http://www.w3.org/2000/svg" width="1260" height="197" viewBox="0 0 1260 197"><path fill="#060606" fill-rule="evenodd" d="M0 98.501v98.501l630.25-.251 630.25-.251.255-98.25.255-98.25H0zM.481 99c0 54.175.121 76.337.269 49.25s.148-71.413 0-98.5S.481 44.825.481 99M20 96.5V172h1218V21H20zm36-.023V136h25v-20c0-11 .383-20 .851-20s2.271 5.513 4.007 12.25 4.109 15.752 5.273 20.032l2.116 7.781 11.056-.281 11.057-.282 5.137-19.5c2.826-10.725 5.409-20.175 5.741-21s.64 8.063.683 19.75L127 136h25V57h-35.781l-2.075 7.75a5142 5142 0 0 0-5.994 22.75c-3.37 12.898-4.029 14.58-4.704 12-.431-1.65-3.106-11.775-5.944-22.5l-5.159-19.5-18.172-.273L56 56.955zm118.967-20.249c-3.39 10.6-8.82 27.527-12.066 37.615-3.245 10.089-5.901 19.202-5.901 20.25 0 1.781.886 1.907 13.422 1.907h13.423l1.006-3.25c.553-1.787 1.302-4.726 1.664-6.53l.657-3.28 12.111.28 12.111.28 1.839 6.25 1.839 6.25h27.151l-.698-3.719c-.384-2.045-5.758-19.707-11.944-39.25L218.335 57.5l-18.602-.272-18.601-.272zM247 96.5V136h24.961l.269-21.75.27-21.75 3.884 15.5c2.136 8.525 4.741 18.313 5.79 21.75l1.906 6.25h21.843l1.39-4.75c.765-2.613 3.131-11.838 5.256-20.5S316.787 95 317.217 95c.431 0 .783 9.225.783 20.5V136h25V57h-17.933c-16.209 0-17.983.168-18.465 1.75-.293.962-2.809 10.513-5.591 21.223-2.782 10.711-5.407 19.823-5.833 20.249s-2.951-7.662-5.61-17.974c-2.66-10.311-5.428-20.21-6.151-21.998L282.102 57H247zm102 0V136h25V57h-25zm32 0V136h25v-28h23v28h26V57h-26v29.981l-10.75-.63c-5.913-.346-10.885-.739-11.05-.873-.165-.135-.571-6.597-.904-14.361L405.693 57H381zm80 0V136h58v-21h-32.684l-.658-18.16c-.362-9.988-.658-23.038-.658-29V57h-24zm85.154-36.272c-.559 1.8-5.997 18.897-12.085 37.993S523 133.643 523 134.5c0 1.347 1.85 1.519 13.731 1.278l13.732-.278 1.442-6.25 1.443-6.25h24.43l1.759 6.5 1.76 6.5h13.851c7.619 0 13.84-.338 13.826-.75S603.441 117.175 596.71 96l-12.239-38.5-18.651-.272-18.651-.272zM613 96.424V136h25l.009-4.75c.004-2.613.284-7.046.622-9.853l.613-5.103 11.977-.644c12.925-.695 17.668-2.127 23.573-7.118 5.362-4.532 7.441-9.779 7.986-20.159.438-8.34.248-9.632-2.208-14.997-3.321-7.253-5.677-9.834-12.072-13.225-4.971-2.636-5.147-2.653-30.25-2.977L613 56.848zm74 .076V136h25V57h-25zm31 0V136h25v-25.7c0-14.892.371-25.3.882-24.75.485.523 2.315 5.675 4.067 11.45a3376 3376 0 0 0 7.653 24.75l4.47 14.25H797V57h-25v25.667c0 14.116-.208 25.458-.462 25.204s-3.576-10.567-7.381-22.917c-3.805-12.349-7.411-23.691-8.013-25.204L755.05 57H718zm107.669-38.75c-.615 1.028-23.257 72.073-24.062 75.5l-.645 2.75h27.944l1.041-3.75c.573-2.062 1.044-4.987 1.047-6.5L831 123h13c10.094 0 13 .295 13 1.318 0 .726.692 3.651 1.539 6.5l1.538 5.182h13.462c15.43 0 15.013.333 11.534-9.212-1.061-2.909-3.799-11.363-6.085-18.788s-6.845-21.937-10.131-32.25L862.882 57H844.5c-10.11 0-18.584.337-18.831.75M876 68.061v11.06l11.502-.31 11.502-.311-.002 28.75L899 136h24.688l.656-15.159c.361-8.337.656-21.162.656-28.5V79h22V57h-71zm78.554 7.189c-3.188 10.037-8.395 26.35-11.572 36.25s-6.083 19.463-6.459 21.25l-.682 3.25h27.057l1.679-5.75c.924-3.162 1.788-6.2 1.921-6.75.154-.633 4.765-.817 12.581-.5l12.338.5.787 4c1.86 9.448.096 8.5 15.815 8.5 7.69 0 13.981-.404 13.981-.898 0-1.065-23.936-76.19-24.637-77.324-.265-.428-8.701-.778-18.747-.778H960.35zM1026 96.438V136h24.715l.643-6.147c.353-3.38.642-7.812.642-9.847v-3.7l11.357-.609c6.246-.334 13.237-1.256 15.535-2.048 9.004-3.102 14.259-8.785 16.741-18.107 4.035-15.149-1.612-29.086-14.441-35.644-4.527-2.314-5.578-2.409-29.942-2.71l-25.25-.313zm85.498-38.188c-.242.688-4.31 13.625-9.041 28.75-4.73 15.125-9.918 31.55-11.529 36.5-4.386 13.482-5.213 12.5 10.533 12.5h13.462l.983-3.75a417 417 0 0 0 1.647-6.5l.664-2.75h24.435l1.443 6.25 1.443 6.25 14.349.278c11.779.229 14.255.034 13.826-1.084-.288-.749-4.418-13.699-9.179-28.778s-10.242-32.254-12.178-38.166L1148.835 57h-18.449c-13.858 0-18.558.311-18.888 1.25M1177 96.5V136h26V57h-26zM198.754 77.663c-1.203 2.136-5.917 23.47-5.453 24.679.373.973 2.146 1.298 6.162 1.129 3.1-.131 5.929-.529 6.285-.886.727-.726-4.56-23.613-5.757-24.922-.421-.461-.977-.461-1.237 0m439.63.78c-.259.673-.338 5.012-.177 9.641l.293 8.416 7.5-.315c6.558-.275 7.789-.634 9.8-2.864 3.235-3.586 2.801-10.845-.8-13.378-3.129-2.201-15.905-3.354-16.616-1.5m339.081 1.162c-.355 1.592-1.466 6.045-2.47 9.895s-1.976 8.555-2.16 10.455l-.335 3.456 5.666.156c3.116.085 6.217-.186 6.892-.603.932-.576.445-3.608-2.024-12.611-1.789-6.519-3.628-12.256-4.088-12.748-.467-.5-1.12.383-1.481 2m-412.829-.522c-1.458 4.804-4.671 18.898-4.883 21.417l-.253 3 6.251-.084c3.437-.046 6.461-.295 6.719-.553.629-.629-5.418-23.114-6.53-24.28-.522-.548-1.048-.346-1.304.5m278.572.56c-.537 1.021-2.179 6.54-3.649 12.263-3.032 11.802-2.936 12.063 4.441 12.063 7.582 0 7.657-.218 4.508-13.115-3.015-12.346-3.814-14.036-5.3-11.211M1051 87v9h7.545c6.678 0 7.828-.282 10-2.455 1.875-1.874 2.455-3.511 2.455-6.927 0-6.605-2.952-8.618-12.635-8.618H1051zm78.683-8.297c-.861 1.395-5.683 20.959-5.683 23.062 0 1.694.741 1.89 6.75 1.787 7.825-.135 7.478 1.23 3.567-14.052-2.557-9.99-3.612-12.45-4.634-10.797"/><path fill="#f9f9f9" fill-rule="evenodd" d="M20 96.5V172h1218V21H20zm36-.023V136h25v-20c0-11 .383-20 .851-20s2.271 5.513 4.007 12.25 4.109 15.752 5.273 20.032l2.116 7.781 11.056-.281 11.057-.282 5.137-19.5c2.826-10.725 5.409-20.175 5.741-21s.64 8.063.683 19.75L127 136h25V57h-35.781l-2.075 7.75a5142 5142 0 0 0-5.994 22.75c-3.37 12.898-4.029 14.58-4.704 12-.431-1.65-3.106-11.775-5.944-22.5l-5.159-19.5-18.172-.273L56 56.955zm118.967-20.249c-3.39 10.6-8.82 27.527-12.066 37.615-3.245 10.089-5.901 19.202-5.901 20.25 0 1.781.886 1.907 13.422 1.907h13.423l1.006-3.25c.553-1.787 1.302-4.726 1.664-6.53l.657-3.28 12.111.28 12.111.28 1.839 6.25 1.839 6.25h27.151l-.698-3.719c-.384-2.045-5.758-19.707-11.944-39.25L218.335 57.5l-18.602-.272-18.601-.272zM247 96.5V136h24.961l.269-21.75.27-21.75 3.884 15.5c2.136 8.525 4.741 18.313 5.79 21.75l1.906 6.25h21.843l1.39-4.75c.765-2.613 3.131-11.838 5.256-20.5S316.787 95 317.217 95c.431 0 .783 9.225.783 20.5V136h25V57h-17.933c-16.209 0-17.983.168-18.465 1.75-.293.962-2.809 10.513-5.591 21.223-2.782 10.711-5.407 19.823-5.833 20.249s-2.951-7.662-5.61-17.974c-2.66-10.311-5.428-20.21-6.151-21.998L282.102 57H247zm102 0V136h25V57h-25zm32 0V136h25v-28h23v28h26V57h-26v29.981l-10.75-.63c-5.913-.346-10.885-.739-11.05-.873-.165-.135-.571-6.597-.904-14.361L405.693 57H381zm80 0V136h58v-21h-32.684l-.658-18.16c-.362-9.988-.658-23.038-.658-29V57h-24zm85.154-36.272c-.559 1.8-5.997 18.897-12.085 37.993S523 133.643 523 134.5c0 1.347 1.85 1.519 13.731 1.278l13.732-.278 1.442-6.25 1.443-6.25h24.43l1.759 6.5 1.76 6.5h13.851c7.619 0 13.84-.338 13.826-.75S603.441 117.175 596.71 96l-12.239-38.5-18.651-.272-18.651-.272zM613 96.424V136h25l.009-4.75c.004-2.613.284-7.046.622-9.853l.613-5.103 11.977-.644c12.925-.695 17.668-2.127 23.573-7.118 5.362-4.532 7.441-9.779 7.986-20.159.438-8.34.248-9.632-2.208-14.997-3.321-7.253-5.677-9.834-12.072-13.225-4.971-2.636-5.147-2.653-30.25-2.977L613 56.848zm74 .076V136h25V57h-25zm31 0V136h25v-25.7c0-14.892.371-25.3.882-24.75.485.523 2.315 5.675 4.067 11.45a3376 3376 0 0 0 7.653 24.75l4.47 14.25H797V57h-25v25.667c0 14.116-.208 25.458-.462 25.204s-3.576-10.567-7.381-22.917c-3.805-12.349-7.411-23.691-8.013-25.204L755.05 57H718zm107.669-38.75c-.615 1.028-23.257 72.073-24.062 75.5l-.645 2.75h27.944l1.041-3.75c.573-2.062 1.044-4.987 1.047-6.5L831 123h13c10.094 0 13 .295 13 1.318 0 .726.692 3.651 1.539 6.5l1.538 5.182h13.462c15.43 0 15.013.333 11.534-9.212-1.061-2.909-3.799-11.363-6.085-18.788s-6.845-21.937-10.131-32.25L862.882 57H844.5c-10.11 0-18.584.337-18.831.75M876 68.061v11.06l11.502-.31 11.502-.311-.002 28.75L899 136h24.688l.656-15.159c.361-8.337.656-21.162.656-28.5V79h22V57h-71zm78.554 7.189c-3.188 10.037-8.395 26.35-11.572 36.25s-6.083 19.463-6.459 21.25l-.682 3.25h27.057l1.679-5.75c.924-3.162 1.788-6.2 1.921-6.75.154-.633 4.765-.817 12.581-.5l12.338.5.787 4c1.86 9.448.096 8.5 15.815 8.5 7.69 0 13.981-.404 13.981-.898 0-1.065-23.936-76.19-24.637-77.324-.265-.428-8.701-.778-18.747-.778H960.35zM1026 96.438V136h24.715l.643-6.147c.353-3.38.642-7.812.642-9.847v-3.7l11.357-.609c6.246-.334 13.237-1.256 15.535-2.048 9.004-3.102 14.259-8.785 16.741-18.107 4.035-15.149-1.612-29.086-14.441-35.644-4.527-2.314-5.578-2.409-29.942-2.71l-25.25-.313zm85.498-38.188c-.242.688-4.31 13.625-9.041 28.75-4.73 15.125-9.918 31.55-11.529 36.5-4.386 13.482-5.213 12.5 10.533 12.5h13.462l.983-3.75a417 417 0 0 0 1.647-6.5l.664-2.75h24.435l1.443 6.25 1.443 6.25 14.349.278c11.779.229 14.255.034 13.826-1.084-.288-.749-4.418-13.699-9.179-28.778s-10.242-32.254-12.178-38.166L1148.835 57h-18.449c-13.858 0-18.558.311-18.888 1.25M1177 96.5V136h26V57h-26zM198.754 77.663c-1.203 2.136-5.917 23.47-5.453 24.679.373.973 2.146 1.298 6.162 1.129 3.1-.131 5.929-.529 6.285-.886.727-.726-4.56-23.613-5.757-24.922-.421-.461-.977-.461-1.237 0m439.63.78c-.259.673-.338 5.012-.177 9.641l.293 8.416 7.5-.315c6.558-.275 7.789-.634 9.8-2.864 3.235-3.586 2.801-10.845-.8-13.378-3.129-2.201-15.905-3.354-16.616-1.5m339.081 1.162c-.355 1.592-1.466 6.045-2.47 9.895s-1.976 8.555-2.16 10.455l-.335 3.456 5.666.156c3.116.085 6.217-.186 6.892-.603.932-.576.445-3.608-2.024-12.611-1.789-6.519-3.628-12.256-4.088-12.748-.467-.5-1.12.383-1.481 2m-412.829-.522c-1.458 4.804-4.671 18.898-4.883 21.417l-.253 3 6.251-.084c3.437-.046 6.461-.295 6.719-.553.629-.629-5.418-23.114-6.53-24.28-.522-.548-1.048-.346-1.304.5m278.572.56c-.537 1.021-2.179 6.54-3.649 12.263-3.032 11.802-2.936 12.063 4.441 12.063 7.582 0 7.657-.218 4.508-13.115-3.015-12.346-3.814-14.036-5.3-11.211M1051 87v9h7.545c6.678 0 7.828-.282 10-2.455 1.875-1.874 2.455-3.511 2.455-6.927 0-6.605-2.952-8.618-12.635-8.618H1051zm78.683-8.297c-.861 1.395-5.683 20.959-5.683 23.062 0 1.694.741 1.89 6.75 1.787 7.825-.135 7.478 1.23 3.567-14.052-2.557-9.99-3.612-12.45-4.634-10.797"/></svg>